<svg xmlns="http://www.w3.org/2000/svg" xmlns:xlink="http://www.w3.org/1999/xlink" viewBox="0 0 1960.87 1960.87"><defs><style>.cls-1{fill:none;}.cls-2{clip-path:url(#clip-path);}.cls-3{fill:#261a44;}.cls-4{fill:#7d7787;}.cls-5,.cls-6{fill:#e096af;}.cls-5{opacity:0.5;}.cls-7{fill:#1c0c35;}.cls-10,.cls-8{fill:#fff;}.cls-9{fill:#ffdc7b;}.cls-10{stroke:#1c0c35;stroke-miterlimit:10;stroke-width:17px;}.cls-11{fill:#dac5f9;}</style><clipPath id="clip-path"><rect class="cls-1" width="1960.87" height="1960.87"/></clipPath></defs><g id="Layer_2" data-name="Layer 2"><g id="Layer_1-2" data-name="Layer 1"><g class="cls-2"><path class="cls-3" d="M816.77,1744.16c-23.51,0-27.83-16.56-32-32.58-6.46-24.76,11.22-40.12,26.71-47.29-5.47-20.65-18.62-72.27-26.9-121.43-2.9-17.15-5.38-33.72-7.58-48.34-3.18-21.24-6.71-44.77-9.75-55.72-12.58,7.67-40.77,29.69-60.77,60.13l-.47.7c-15.35,23.37-22.36,34-33.13,34h0c-12.34,0-15.69-14.05-16.8-18.66-1.78-7.48-3.26-18.63-4.8-36.18-5.14-58.59,40.33-117,52.23-131.19l-1-118.1a10.5,10.5,0,0,1,10.3-10.59l690-13.08a10.49,10.49,0,0,1,10.45,9.52l9.25,98.57c13.23,6.12,48,22.5,82.35,41.41,18.4,10.12,30.69,30.16,35.54,57.94,3.81,21.79,2,42.65-.11,50.68-2.43,9.47-8.32,10.88-11.62,10.88a11.11,11.11,0,0,1-10.32-7.32c-.33-.55-2.78-4.06-16.46-11.7-10.82-6-26.68-13.65-49.93-23.91-14.4-6.37-27-9.6-37.32-9.6a33.58,33.58,0,0,0-10.65,1.5c1.77,23.23,7.65,102.31,10.4,163.66,1.12,25.07,3.62,40.16,7.64,46.14,1.77,2.65,3.46,3.1,12.86,3.44a106.1,106.1,0,0,1,16.76,1.61c13.51,2.6,24.78,12.33,32.59,28.15,7.26,14.71,12.13,37.55,7.51,46.79-3.67,7.35-12.65,7.88-27,7.88-21.53,0-57.63-2.48-89.48-4.67-19.85-1.36-37-2.54-46.9-2.86-14.86-.48-24.56-3.78-30.55-10.4-7.47-8.26-6.76-18.76-6.13-28,.18-2.65.36-5.4.36-8,0-4.55.41-10.53.85-16.86.56-8.2,1.62-23.6.68-31.57-28.68,8.25-130.67,24.4-188.44,29.47-9.74.86-21.45,1.29-34.79,1.29-47,0-105.67-5.32-137.2-8.17-5.21-.48-10.27-.93-14.25-1.27.92,14.39,8.32,47.08,11.39,60.64,2.77,12.22,4.23,18.75,4.57,22.1a13.64,13.64,0,0,1-3.35,10.87c-4.32,4.78-10.68,4.78-12.77,4.78a104.46,104.46,0,0,1-11.15-.91,207.5,207.5,0,0,0-24.58-1.67,154.84,154.84,0,0,0-28.6,2.65C836.74,1742.15,825.5,1744.16,816.77,1744.16Z"/><path d="M1402.77,1216.37l9.81,104.61s43.59,19.62,87.18,43.59c41.45,22.8,32.64,99.8,28.87,99.8-.2,0-.38-.2-.54-.63-3.27-8.72-25.06-20.7-71.92-41.41-18.17-8-31.75-10.49-41.57-10.49-15.51,0-21.64,6.13-21.64,6.13s7.63,97,10.9,170,17.44,55.58,45.77,61,36,53.4,32.69,59.94c-.74,1.49-7.39,2.07-17.61,2.07-34.56,0-110-6.68-136-7.52-33.79-1.09-26.16-17.44-26.16-36,0-17.35,6.7-60.54-5-60.54a6.8,6.8,0,0,0-2.63.61c-15.25,6.54-128.59,25.06-190.7,30.51-10,.88-21.54,1.25-33.87,1.25-64.08,0-149.88-10-159-10-10.9,0,12,83.91,13.08,94.81.31,3.14-1.63,4.11-5.67,4.11-6.57,0-18.71-2.58-35.73-2.58a165.7,165.7,0,0,0-30.52,2.83c-16.72,3.11-27.89,5.11-35.68,5.11-14,0-17.09-6.5-21.84-24.72-7.39-28.34,29.18-38.15,29.18-38.15s-18.52-66.47-29.18-129.68c-10.55-62.57-15.4-115.53-23.66-115.53l-.25,0c-8.42,1.09-48.26,29.42-73.32,67.56-12.12,18.45-19.65,30-24.82,30-5.51,0-8.33-13.19-11.14-45.26-5.45-62.12,52.31-126.41,52.31-126.41L713,1229.44l689.81-13.07m0-21h-.41l-689.81,13.08a21,21,0,0,0-20.6,21.18l1,114.31a297.35,297.35,0,0,0-25.32,37c-20.45,35.44-29.48,68.69-26.84,98.83,1.61,18.33,3.12,29.61,5,37.71a47.22,47.22,0,0,0,5.52,14.27c4.93,7.91,12.77,12.45,21.49,12.45,13.7,0,22.45-11.17,26.19-16,4.51-5.76,9.46-13.29,15.73-22.84l.45-.68c13.53-20.59,31.79-37.74,45.07-48.18,2.1,11.55,4.34,26.46,6.3,39.56,2.2,14.66,4.69,31.28,7.6,48.52,7.53,44.67,18.75,90.3,25,114.44-1.62,1-3.25,2.06-4.86,3.23-17.79,13-25,31.91-19.77,52,4.2,16.1,10.54,40.43,42.16,40.43,9.65,0,21.3-2.08,39.52-5.46a143.68,143.68,0,0,1,26.68-2.48,198.76,198.76,0,0,1,23.4,1.6,114.37,114.37,0,0,0,12.33,1c8.7,0,15.62-2.77,20.56-8.23a24.24,24.24,0,0,0,6-19c-.39-4-1.82-10.39-4.77-23.37-2.53-11.2-5.69-25.15-8-37.63-.64-3.47-1.16-6.48-1.57-9.08l1.27.11c31.69,2.87,90.68,8.22,138.14,8.22,13.65,0,25.66-.45,35.7-1.33,29.13-2.55,71.9-8.17,114.44-15,20.81-3.36,45.36-7.61,62.89-11.54-.19,6.27-.66,13.1-1,17.49-.44,6.51-.87,12.67-.87,17.58,0,2.29-.16,4.74-.34,7.33-.69,10.22-1.64,24.21,8.83,35.78s26.73,13.48,38,13.85c9.72.31,27.6,1.54,46.52,2.84,32,2.2,68.31,4.69,90.2,4.69a141.22,141.22,0,0,0,14.65-.6c4-.44,16.09-1.77,21.75-13.08,2-4.07,4.42-11.32,1.73-27.27a107.39,107.39,0,0,0-9.23-28.87c-9.32-18.88-23.16-30.57-40-33.81a113.88,113.88,0,0,0-18.37-1.79c-1.67-.06-3.75-.14-5.26-.27-1.36-3.33-4-13-5.13-39.29-2.45-54.61-7.37-123.2-9.68-154.18,6.2.09,16.74,1.72,32.52,8.69,20.71,9.15,35.23,16,45.68,21.63,10.76,5.77,14.73,8.93,16,10.1a21.44,21.44,0,0,0,19.27,12.1c4,0,17.32-1.35,21.79-18.77,2.93-11.4,4-34,.29-55.09-5.42-31-19.54-53.63-40.83-65.34-31-17.05-61.62-31.76-77.52-39.19l-8.68-92.57a21,21,0,0,0-20.9-19Z"/><path class="cls-4" d="M865.24,1380.69a289.62,289.62,0,0,1-218-98.73H342.4a319.42,319.42,0,0,1-7.94-638.74,440.43,440.43,0,0,1-2.56-46.09A471.19,471.19,0,0,1,1234.14,406.8a341.43,341.43,0,0,1,490.34,416.34A229.59,229.59,0,0,1,1711.69,1282H1472a290,290,0,0,1-373.42,0H1083.2A289.61,289.61,0,0,1,865.24,1380.69Z"/><ellipse class="cls-5" cx="1427.02" cy="1052.36" rx="95.63" ry="14.71"/><ellipse class="cls-5" cx="648.93" cy="1052.36" rx="95.63" ry="14.71"/><path d="M803.13,136.39c192.44,0,357.15,118.07,426.09,285.65a329.14,329.14,0,0,1,175.72-50.83c182.88,0,331.13,148.25,331.13,331.14a329.82,329.82,0,0,1-27.14,131.22c.94,0,1.81-.27,2.76-.27,121,0,219.08,98.08,219.08,219.08s-98.09,219.08-219.08,219.08H1468.1a279.53,279.53,0,0,1-365.68,0h-24a279.48,279.48,0,0,1-426.33,0H342.4c-170.61,0-308.92-138.31-308.92-308.92S171.79,653.62,342.4,653.62c1.3,0,2.55.18,3.84.2a463.09,463.09,0,0,1-3.84-56.69c0-254.46,206.28-460.74,460.73-460.74m0-21A481.34,481.34,0,0,0,321.4,597.13c0,11.55.51,23.33,1.57,36a329.92,329.92,0,0,0,19.43,659.28H642.56a300.47,300.47,0,0,0,445.35,0h6.85a300.21,300.21,0,0,0,381,0h235.93A240.09,240.09,0,0,0,1739,813.82a351.78,351.78,0,0,0-500-421.73,481.69,481.69,0,0,0-435.83-276.7Z"/><path class="cls-6" d="M1113.77,1101.33s-89.45-13.34-145.66-.38c0,0,17.4-66.16,84.35-60C1072.21,1042.78,1104.56,1057.84,1113.77,1101.33Z"/><path class="cls-7" d="M1043.91,1028.82q4.66,0,9.62.45c28.93,2.66,62.32,25.22,71.72,69.63a11.71,11.71,0,0,1-2.94,10.47,11.58,11.58,0,0,1-10.28,3.57c-.85-.13-87.92-12.84-141.29-.55a11.74,11.74,0,0,1-14-14.43C963.27,1073.17,989.66,1028.82,1043.91,1028.82Zm53.14,58.59c-13.82-30.86-42-34.42-45.67-34.76-35.24-3.26-54.43,17.07-63.9,33.12C1026.58,1081.12,1072.16,1084.68,1097.05,1087.41Z"/><path class="cls-8" d="M395.47,605.2a11.35,11.35,0,0,1-11.35-11.35c0-225.12,177.4-408.27,395.45-408.27a11.35,11.35,0,0,1,0,22.7c-205.53,0-372.75,173-372.75,385.57A11.35,11.35,0,0,1,395.47,605.2Z"/><path class="cls-9" d="M654.74,1729.69a10.51,10.51,0,0,1-9.49-6l-89.78-189.63-147.11-16.13a10.51,10.51,0,0,1-9.29-11.61l35.16-312.48a10.49,10.49,0,0,1,8.71-9.18,10.09,10.09,0,0,1,1.73-.14,10.48,10.48,0,0,1,9.48,6l89.91,189.93,146.29,16a10.51,10.51,0,0,1,9.3,11.59l-34.47,312.25a10.54,10.54,0,0,1-10.44,9.35Z"/><path d="M444.66,1195l92.42,195.24,152.13,16.69-34.47,312.25-92.29-194.93-152.94-16.78L444.66,1195m0-21a21.43,21.43,0,0,0-3.46.28,21,21,0,0,0-17.42,18.37l-35.15,312.47a21,21,0,0,0,18.58,23.23l141.27,15.49,87.27,184.32a21,21,0,0,0,19,12,21.5,21.5,0,0,0,3.48-.29,21,21,0,0,0,17.4-18.41l34.47-312.25a21,21,0,0,0-18.58-23.18L551,1370.66,463.64,1186a21,21,0,0,0-19-12Z"/><path class="cls-9" d="M1545.16,1729.69a10.93,10.93,0,0,1-1.39-.09,10.5,10.5,0,0,1-9-8.91l-47.09-326.23a10.52,10.52,0,0,1,8.9-11.9l153.13-22L1737.46,1158a10.5,10.5,0,0,1,9.63-6.33,10.78,10.78,0,0,1,1.38.09,10.51,10.51,0,0,1,9,8.89l47.81,326.44a10.49,10.49,0,0,1-8.89,11.92l-154,22.11-87.62,202.26A10.5,10.5,0,0,1,1545.16,1729.69Z"/><path d="M1747.09,1162.15l47.81,326.44-159.79,23-89.95,207.65L1498.08,1393,1657,1370.13l90.07-208m0-21a21,21,0,0,0-19.26,12.66L1642.41,1351l-147.32,21.16a21,21,0,0,0-17.8,23.79l47.08,326.23a21,21,0,0,0,18,17.81,20.23,20.23,0,0,0,2.79.19,21,21,0,0,0,19.26-12.65l85.28-196.88,148.18-21.28a21,21,0,0,0,17.79-23.83l-47.81-326.44a21,21,0,0,0-18-17.77,19.94,19.94,0,0,0-2.77-.19Z"/><path class="cls-10" d="M940.92,849.25c11.6,0,20.5,8.73,18.89,18.48-10.6,64.43-75.83,114-154.73,114s-144.13-49.6-154.72-114c-1.61-9.75,7.29-18.48,18.88-18.48Z"/><path class="cls-7" d="M863.88,856.49a58.8,58.8,0,1,1-117.59,0"/><path class="cls-11" d="M876.9,887.88a19.2,19.2,0,0,0,18.18,20.6A19.92,19.92,0,0,0,915.93,890a19.27,19.27,0,0,0-18.2-20.66A19.92,19.92,0,0,0,876.9,887.88Z"/><path class="cls-10" d="M1416.26,849.25c11.6,0,20.49,8.73,18.89,18.48-10.6,64.43-75.83,114-154.73,114s-144.13-49.6-154.73-114c-1.6-9.75,7.29-18.48,18.89-18.48Z"/><path class="cls-7" d="M1339.22,856.49a58.8,58.8,0,1,1-117.6,0"/><path class="cls-11" d="M1352.23,887.88a19.21,19.21,0,0,0,18.18,20.6A19.93,19.93,0,0,0,1391.27,890a19.27,19.27,0,0,0-18.2-20.66A19.93,19.93,0,0,0,1352.23,887.88Z"/></g></g></g></svg>
