<?xml version="1.0" encoding="UTF-8" standalone="no"?>
<svg
   width="150.00003"
   height="42"
   viewBox="0 0 150.00003 42"
   fill="none"
   version="1.1"
   id="svg826"
   xmlns="http://www.w3.org/2000/svg">
  <defs
     id="defs830" />
  <g
     style="fill:none"
     id="g986"
     transform="translate(2.468036,3.375)">
    <path
       d="M 0.531982,0.625 H 23.0266 V 5.67483 H 6.45613 V 13.5862 H 21.4382 v 5.0499 H 6.45613 V 30.0824 H 0.531982 Z"
       fill="#ffdb85"
       id="path962" />
    <path
       d="m 36.3351,30.0824 c -2.5471,0 -4.4216,-0.519 -5.6236,-1.5571 -1.1734,-1.066 -1.7601,-2.7072 -1.7601,-4.9236 V 0.625 h 5.8383 v 22.6401 c 0,0.6733 0.1574,1.1643 0.4722,1.4729 0.3148,0.3086 0.8157,0.4629 1.5025,0.4629 h 2.3182 v 4.8815 z"
       fill="#ffdb85"
       id="path964" />
    <path
       d="m 51.1197,30.419 c -2.2323,0 -4.0353,-0.547 -5.409,-1.6412 -1.3738,-1.0941 -2.0606,-2.5389 -2.0606,-4.3344 v -1.557 c 0,-1.7675 0.7155,-3.1842 2.1464,-4.2503 1.431,-1.0942 3.3198,-1.6412 5.6666,-1.6412 h 2.6186 c 0.7441,0 1.5455,0.0982 2.4041,0.2946 0.8585,0.1963 1.6455,0.4629 2.361,0.7995 v -2.1883 c 0,-0.7013 -0.2432,-1.2624 -0.7298,-1.6832 -0.4579,-0.4489 -1.0732,-0.6733 -1.8459,-0.6733 h -3.6919 c -0.8013,0 -1.4452,0.1823 -1.9317,0.547 -0.4866,0.3647 -0.7298,0.8557 -0.7298,1.4729 h -5.6666 c 0,-2.048 0.7584,-3.6892 2.2752,-4.9236 1.5454,-1.26245 3.5631,-1.89368 6.0529,-1.89368 h 3.6919 c 2.5185,0 4.5504,0.65928 6.0959,1.97788 1.5454,1.2905 2.3181,3.0158 2.3181,5.176 v 14.1817 h -5.409 v -2.525 c -0.6869,0.8697 -1.5311,1.5711 -2.5328,2.1041 -1.0017,0.505 -1.989,0.7575 -2.9621,0.7575 z m 3.0908,-4.3765 c 1.0589,0 2.0034,-0.2665 2.8333,-0.7996 0.83,-0.533 1.431,-1.2484 1.803,-2.1461 V 22.3814 C 58.3889,22.0447 57.745,21.7782 56.915,21.5818 56.1137,21.3854 55.2551,21.2872 54.3393,21.2872 h -2.7045 c -0.6868,0 -1.2449,0.1684 -1.6742,0.505 -0.4293,0.3367 -0.6439,0.7856 -0.6439,1.3466 v 1.0942 c 0,0.533 0.2289,0.9679 0.6868,1.3045 0.4866,0.3367 1.1162,0.505 1.8889,0.505 z"
       fill="#ffdb85"
       id="path966" />
    <path
       d="m 79.688,30.419 c -2.6043,0 -4.6935,-0.6733 -6.2676,-2.0199 -1.574,-1.3466 -2.3611,-3.1141 -2.3611,-5.3023 h 5.7525 c 0,0.7574 0.2576,1.3746 0.7727,1.8516 0.5438,0.4488 1.2449,0.6733 2.1035,0.6733 h 3.8636 c 1.7171,0 2.5757,-0.4629 2.5757,-1.3887 v -0.7154 c 0,-0.2806 -0.1431,-0.5331 -0.4293,-0.7575 -0.2862,-0.2525 -0.6725,-0.4208 -1.1591,-0.505 l -7.4266,-1.2624 c -1.7458,-0.2806 -3.1338,-0.8838 -4.1641,-1.8096 -1.0017,-0.9538 -1.5025,-2.062 -1.5025,-3.3244 V 14.47 c 0,-1.7955 0.7441,-3.1983 2.2323,-4.2082 1.5168,-1.01 3.6203,-1.51498 6.3105,-1.51498 h 3.3484 c 2.404,0 4.3358,0.63123 5.7954,1.89368 1.4882,1.2344 2.2323,2.8756 2.2323,4.9236 h -5.7524 c 0,-0.6172 -0.2147,-1.1082 -0.644,-1.4729 -0.4006,-0.3647 -0.9444,-0.547 -1.6313,-0.547 h -3.2626 c -1.8602,0 -2.7903,0.4208 -2.7903,1.2624 v 0.6733 c 0,0.3086 0.1145,0.5751 0.3434,0.7996 0.2576,0.1964 0.6153,0.3366 1.0732,0.4208 l 7.813,1.3887 c 1.6313,0.2806 2.9478,0.8837 3.9495,1.8095 1.0017,0.8978 1.5025,1.9218 1.5025,3.072 v 1.515 c 0,1.8235 -0.7727,3.2683 -2.3182,4.3344 -1.5168,1.0661 -3.5487,1.5991 -6.0958,1.5991 z"
       fill="#ffdb85"
       id="path968" />
    <path
       d="m 98.3331,0.625 h 5.8379 v 10.5626 c 0.63,-0.7295 1.403,-1.3186 2.319,-1.76747 0.944,-0.44888 1.845,-0.67331 2.704,-0.67331 h 2.662 c 2.289,0 4.121,0.70136 5.494,2.10408 1.403,1.4027 2.104,3.2544 2.104,5.5548 v 13.6767 h -5.838 V 16.6161 c 0,-0.8697 -0.244,-1.571 -0.73,-2.1041 -0.458,-0.533 -1.059,-0.7995 -1.803,-0.7995 h -2.662 c -1.001,0 -1.903,0.3647 -2.704,1.0941 -0.773,0.7014 -1.288,1.6272 -1.546,2.7774 v 12.4984 h -5.8379 z"
       fill="#ffdb85"
       id="path970" />
    <path
       d="m 135.169,38.625 c -2.319,0 -4.236,-0.6453 -5.753,-1.9358 -1.488,-1.2624 -2.318,-2.9317 -2.49,-5.0077 h 5.753 c 0.057,0.6172 0.314,1.1081 0.772,1.4728 0.458,0.3928 1.031,0.5892 1.718,0.5892 h 3.52 c 0.887,0 1.602,-0.3647 2.146,-1.0941 0.573,-0.7014 0.859,-1.6272 0.859,-2.7774 v -2.7354 c -0.659,0.8697 -1.417,1.5571 -2.276,2.062 -0.829,0.477 -1.659,0.7154 -2.489,0.7154 h -2.834 c -2.261,0 -4.078,-0.7294 -5.452,-2.1882 -1.373,-1.4869 -2.06,-3.4507 -2.06,-5.8915 V 9.08347 h 5.838 V 21.9185 c 0,0.9258 0.229,1.6832 0.687,2.2724 0.486,0.5611 1.116,0.8416 1.889,0.8416 h 2.49 c 0.944,0 1.803,-0.3787 2.575,-1.1362 0.773,-0.7855 1.317,-1.8095 1.632,-3.072 V 9.08347 h 5.838 V 29.872 c 0,1.7393 -0.372,3.2683 -1.116,4.5869 -0.716,1.3186 -1.746,2.3425 -3.091,3.072 -1.345,0.7294 -2.891,1.0941 -4.636,1.0941 z"
       fill="#ffdb85"
       id="path972" />
  </g>
  <path
     fill-rule="evenodd"
     clip-rule="evenodd"
     d="M 0,0 H 25.062718 V 7.93889 H 8.567908 v 5.45931 h 14.91371 v 7.9389 H 8.567908 V 33.1693 H 0 Z m 7.232518,19.9777 h 14.9137 V 14.7576 H 7.232518 V 6.57949 h 16.4948 V 1.3594 H 1.335398 v 30.4505 h 5.89712 z m 23.2493,11.2314 -0.0124,-0.0117 c -1.5378,-1.4509 -2.1797,-3.5771 -2.1797,-6.0866 V 0 h 8.4825 v 24.7628 c 0,0.3673 0.0599,0.5172 0.0811,0.559 0.0411,0.0217 0.1884,0.0827 0.5492,0.0827 h 3.6429 v 7.7648 h -4.0703 c -2.6787,0 -4.9318,-0.5598 -6.4807,-1.9488 z m 27.9942,-0.6305 c 0.497,-0.402 0.9422,-0.8616 1.3354,-1.3787 v 2.61 h 5.3844 V 17.1502 c 0,-2.2331 -0.7692,-4.0166 -2.3076,-5.3506 -1.5384,-1.363 -3.5611,-2.0446 -6.0681,-2.0446 h -3.675 c -2.4785,0 -4.4869,0.6526 -6.0253,1.9576 -1.1716,0.9902 -1.8887,2.2336 -2.1512,3.7302 -0.0757,0.432 -0.1136,0.8851 -0.1136,1.3594 h 5.6407 c 0,-0.638 0.2422,-1.1455 0.7265,-1.5226 0.4843,-0.377 1.1253,-0.5655 1.9229,-0.5655 h 3.675 c 0.7692,0 1.3817,0.232 1.8376,0.6961 0.4843,0.435 0.7264,1.015 0.7264,1.74 v 2.262 c -0.4203,-0.2054 -0.8654,-0.3855 -1.3354,-0.5404 -0.3263,-0.1075 -0.6646,-0.2029 -1.0149,-0.2861 -0.8546,-0.203 -1.6523,-0.3045 -2.393,-0.3045 h -2.6067 c -2.3361,0 -4.2163,0.5655 -5.6407,1.6965 -1.4245,1.1021 -2.1367,2.5666 -2.1367,4.3936 v 1.6095 c 0,1.8561 0.6838,3.3496 2.0512,4.4806 1.3674,1.131 3.1622,1.6966 5.3843,1.6966 h 2.6495 c 0.9686,0 1.9514,-0.2611 2.9485,-0.7831 0.4236,-0.234 0.8188,-0.4995 1.1858,-0.7963 z m 0,1.6639 c -0.1783,0.1145 -0.3612,0.2235 -0.5487,0.3271 l -0.0131,0.0073 -0.0132,0.0069 c -1.1562,0.6053 -2.3471,0.9335 -3.5593,0.9335 h -2.6495 c -2.4469,0 -4.5643,-0.6261 -6.2264,-2.0008 -1.6919,-1.3994 -2.5445,-3.2868 -2.5445,-5.5357 v -1.6095 c 0,-2.2474 0.9038,-4.1111 2.6574,-5.4707 0.3492,-0.2768 0.7181,-0.5227 1.1056,-0.739 h -3.1647 v -1.3594 c 0,-2.4937 0.9114,-4.5841 2.7472,-6.1356 1.831,-1.55235 4.165,-2.27095 6.8783,-2.27095 h 3.675 c 2.7498,0 5.1066,0.75236 6.9396,2.37395 1.8602,1.6158 2.7715,3.7904 2.7715,6.3806 v 16.0191 h -8.0552 z m -0.4273,-14.7921 v -0.3002 c 0,-0.3799 -0.1091,-0.5721 -0.2746,-0.7207 l -0.0312,-0.0281 -0.0295,-0.03 c -0.1579,-0.1607 -0.4048,-0.2979 -0.8933,-0.2979 h -3.675 c -0.595,0 -0.9233,0.1393 -1.1117,0.286 -0.1433,0.1115 -0.2023,0.2142 -0.2023,0.4427 v 0.1209 c 0.0674,-9e-4 0.1351,-0.0013 0.203,-0.0013 h 2.6067 c 0.8596,0 1.76,0.1176 2.6965,0.3401 0.2413,0.0573 0.4784,0.1201 0.7114,0.1885 z m -0.9062,6.8925 -0.0052,-0.0013 c -0.681,-0.1733 -1.426,-0.2639 -2.2401,-0.2639 h -2.6922 c -0.4579,0 -0.6959,0.113 -0.8323,0.2241 -0.0958,0.078 -0.1398,0.1438 -0.1398,0.3305 v 1.131 c 0,0.0784 0.0145,0.1118 0.0221,0.1269 0.0084,0.0165 0.0339,0.0598 0.1124,0.1224 0.202,0.1394 0.5341,0.2619 1.094,0.2619 h 2.3076 c 0.8124,0 1.4947,-0.2082 2.0885,-0.6042 0.442,-0.2948 0.787,-0.6555 1.0452,-1.0932 -0.2095,-0.0813 -0.4592,-0.1602 -0.7549,-0.2329 z m 2.2416,0.2459 c -0.3703,0.928 -0.9686,1.6675 -1.7948,2.2186 -0.8261,0.551 -1.7662,0.8265 -2.8203,0.8265 h -2.3076 c -0.7692,0 -1.3959,-0.174 -1.8802,-0.522 -0.4558,-0.348 -0.6837,-0.7976 -0.6837,-1.3486 v -1.131 c 0,-0.58 0.2136,-1.044 0.6409,-1.392 0.4274,-0.348 0.9829,-0.522 1.6666,-0.522 h 2.6922 c 0.9116,0 1.7663,0.1015 2.5639,0.3045 0.8262,0.203 1.4672,0.4785 1.923,0.8265 z m 10.8214,-1.3594 h 5.1135 c -1.0672,-0.3904 -2.0086,-0.9454 -2.8002,-1.6841 l -0.0143,-0.0133 -0.0138,-0.0137 c -1.2318,-1.2181 -1.9006,-2.7063 -1.9006,-4.4116 v -1.4355 c 0,-2.2958 0.9506,-4.1663 2.7974,-5.4678 l 0.0049,-0.0034 0.0049,-0.0034 c 1.8123,-1.25319 4.205,-1.80095 7.032,-1.80095 h 3.3332 c 2.6335,0 4.8928,0.72231 6.642,2.28825 1.7978,1.5537 2.6844,3.6388 2.6844,6.1183 v 1.3594 h -5.489 c 1.6346,0.3586 3.0438,1.0518 4.165,2.1251 1.2214,1.1399 1.9222,2.5433 1.9222,4.1716 v 1.566 c 0,2.3338 -0.9857,4.2374 -2.8697,5.589 -1.8055,1.3158 -4.1289,1.904 -6.8413,1.904 h -3.8459 c -2.8328,0 -5.2513,-0.7656 -7.1171,-2.4232 -1.8792,-1.6695 -2.8076,-3.8811 -2.8076,-6.5053 z m 19.8387,7.2755 c 1.5384,-1.102 2.3075,-2.5955 2.3075,-4.4806 v -1.566 c 0,-1.189 -0.4985,-2.2475 -1.4956,-3.1755 -0.9971,-0.9571 -2.3076,-1.5806 -3.9314,-1.8706 l -7.7774,-1.4355 c -0.4558,-0.087 -0.8119,-0.232 -1.0683,-0.435 -0.2279,-0.232 -0.3418,-0.5075 -0.3418,-0.8265 v -0.696 c 0,-0.8701 0.9258,-1.3051 2.7776,-1.3051 h 3.2477 c 0.6837,0 1.225,0.1885 1.6238,0.5655 0.4273,0.3771 0.641,0.8846 0.641,1.5226 h 5.7262 c 0,-0.4743 -0.0372,-0.9274 -0.1115,-1.3594 -0.2575,-1.4966 -0.9611,-2.74 -2.1106,-3.7302 -1.4529,-1.305 -3.3759,-1.9576 -5.7689,-1.9576 h -3.3332 c -2.6779,0 -4.7718,0.5221 -6.2817,1.5661 -1.4814,1.044 -2.2221,2.494 -2.2221,4.3501 v 1.4355 c 0,1.305 0.4986,2.4505 1.4956,3.4365 1.0256,0.9571 2.4073,1.5806 4.1451,1.8706 l 7.3928,1.305 c 0.4843,0.087 0.8689,0.261 1.1538,0.522 0.2849,0.232 0.4273,0.493 0.4273,0.783 v 0.7395 c 0,0.9571 -0.8547,1.4356 -2.564,1.4356 h -3.8459 c -0.8547,0 -1.5526,-0.232 -2.0939,-0.6961 -0.5128,-0.493 -0.7692,-1.131 -0.7692,-1.914 h -5.7262 c 0,0.4721 0.0341,0.9252 0.1024,1.3594 0.2587,1.6463 1.008,3.0202 2.2479,4.1217 1.5669,1.392 3.6465,2.0881 6.239,2.0881 h 3.8459 c 2.5355,0 4.5582,-0.5511 6.0681,-1.6531 z m -11.1182,-5.0172 c 0.2524,0.2042 0.6194,0.3518 1.2042,0.3518 h 3.8459 c 0.6932,0 1.0629,-0.0928 1.2286,-0.1656 v -0.4354 c -0.0612,-0.0504 -0.1956,-0.1301 -0.4761,-0.1807 -5e-4,-10e-5 -0.0011,-2e-4 -0.0017,-3e-4 l -6.1244,-1.0811 v 0.6124 c 0,0.4279 0.12,0.6915 0.3235,0.8989 z m 0.1466,-8.9324 v -0.314 c 0.2308,-0.0836 0.6793,-0.1678 1.4422,-0.1678 h 3.2477 c 0.4367,0 0.6222,0.1145 0.7151,0.2023 l 0.0168,0.0159 0.0173,0.0152 c 0.1009,0.089 0.1802,0.2036 0.1802,0.4953 v 0.8163 l -5.2985,-0.9779 c -0.0012,-2e-4 -0.0024,-5e-4 -0.0036,-7e-4 -0.1383,-0.0266 -0.2416,-0.0567 -0.3172,-0.0846 z M 97.354818,0 h 8.482202 v 9.437 c 0.123,-0.06986 0.248,-0.13711 0.375,-0.20182 l 0.008,-0.00371 0.007,-0.00361 c 1.082,-0.53406 2.178,-0.83221 3.275,-0.83221 h 2.649 c 2.579,0 4.77,0.8325 6.428,2.58775 1.679,1.7467 2.471,4.0229 2.471,6.6888 v 15.4971 h -8.482 V 17.8897 c 0,-0.6403 -0.166,-1.018 -0.387,-1.2686 l -0.013,-0.0152 -0.013,-0.0156 c -0.189,-0.2282 -0.405,-0.3428 -0.773,-0.3428 h -2.65 c -0.627,0 -1.208,0.224 -1.783,0.7678 l -0.001,0.0013 c -0.516,0.4862 -0.897,1.1411 -1.111,2.0288 v 14.1239 h -8.482202 z m 7.147202,18.8902 c 0.256,-1.189 0.769,-2.146 1.538,-2.871 0.798,-0.7541 1.695,-1.1311 2.692,-1.1311 h 2.65 c 0.741,0 1.339,0.2755 1.795,0.8266 0.484,0.551 0.726,1.276 0.726,2.175 v 13.9202 h 5.812 V 17.6722 c 0,-2.3781 -0.698,-4.2921 -2.094,-5.7421 -1.368,-1.45 -3.191,-2.1751 -5.47,-2.1751 h -2.649 c -0.855,0 -1.752,0.2321 -2.693,0.6961 -0.344,0.1752 -0.668,0.3712 -0.972,0.5879 -0.5,0.3569 -0.945,0.7699 -1.335,1.2391 V 1.3594 h -5.811802 v 30.4505 h 5.811802 z m 28.377,14.5728 c 0.057,0.638 0.313,1.1455 0.769,1.5225 0.456,0.406 1.026,0.609 1.71,0.609 h 3.504 c 0.883,0 1.595,-0.377 2.136,-1.131 0.57,-0.725 0.855,-1.682 0.855,-2.8711 v -2.8275 c -0.407,0.558 -0.852,1.0434 -1.335,1.4562 -0.296,0.2522 -0.606,0.4773 -0.93,0.6753 -0.826,0.493 -1.652,0.7395 -2.478,0.7395 h -2.821 c -2.25,0 -4.059,-0.754 -5.427,-2.262 -1.367,-1.537 -2.051,-3.5671 -2.051,-6.0901 V 10.1031 h 5.812 v 13.2677 c 0,0.957 0.228,1.74 0.683,2.349 0.485,0.58 1.111,0.87 1.881,0.87 h 2.478 c 0.94,0 1.795,-0.3915 2.564,-1.1745 0.769,-0.812 1.311,-1.8705 1.624,-3.1755 V 10.1031 h 5.812 v 21.4893 c 0,1.7981 -0.371,3.3786 -1.111,4.7416 -0.713,1.363 -1.738,2.4216 -3.077,3.1756 -1.339,0.754 -2.878,1.131 -4.615,1.131 h -3.504 c -2.308,0 -4.217,-0.667 -5.727,-2.001 -1.154,-1.0171 -1.911,-2.2894 -2.269,-3.8172 -0.102,-0.4327 -0.171,-0.8858 -0.209,-1.3594 z m 7.639,-11.3934 V 8.74366 h 8.482 V 31.5924 c 0,1.9884 -0.41,3.7988 -1.273,5.3901 -0.834,1.5927 -2.044,2.8383 -3.604,3.7166 -1.562,0.8798 -3.329,1.3009 -5.261,1.3009 h -3.504 c -2.576,0 -4.811,-0.7521 -6.6,-2.3325 -1.769,-1.5579 -2.739,-3.6246 -2.936,-6.0947 l -0.117,-1.4692 h 4.542 c -0.877,-0.4377 -1.669,-1.0386 -2.366,-1.8076 l -0.004,-0.0048 -0.005,-0.0048 c -1.635,-1.8386 -2.396,-4.219 -2.396,-7.0026 V 8.74366 h 8.482 V 23.3708 c 0,0.7128 0.162,1.178 0.389,1.4959 0.217,0.2475 0.463,0.3638 0.84,0.3638 h 2.478 c 0.527,0 1.053,-0.2029 1.611,-0.7676 0.546,-0.5796 0.972,-1.3589 1.242,-2.3933 z m -0.009,9.8446 c -0.077,0.0506 -0.155,0.0999 -0.234,0.1479 l -0.006,0.0036 -0.006,0.0035 c -0.998,0.5955 -2.054,0.9261 -3.153,0.9261 h -2.821 c -0.037,0 -0.074,-1e-4 -0.111,-5e-4 l 0.031,0.3451 c 0.027,0.3021 0.126,0.4623 0.281,0.5906 l 0.019,0.0156 0.019,0.0163 c 0.18,0.1611 0.425,0.2727 0.83,0.2727 h 3.504 c 0.438,0 0.757,-0.1539 1.058,-0.5737 l 0.017,-0.0239 0.019,-0.0232 c 0.294,-0.3745 0.507,-0.9109 0.553,-1.7001 z M 31.377218,30.2004 c 1.1965,1.073 3.0625,1.6095 5.5979,1.6095 h 2.7349 v -5.046 h -2.3075 c -0.6838,0 -1.1823,-0.1596 -1.4957,-0.4786 -0.3133,-0.319 -0.47,-0.8265 -0.47,-1.5225 V 1.3594 h -5.8117 v 23.7514 c 0,2.2911 0.584,3.9876 1.7521,5.0896 z"
     fill="#000000"
     id="path824" />
</svg>
